<svg version="1.1" id="Layer_1" xmlns="http://www.w3.org/2000/svg" xmlns:xlink="http://www.w3.org/1999/xlink" x="0px" y="0px"
								viewBox="0 0 650 400" enable-background="new 0 0 650 400" xml:space="preserve">
<g>
	<path fill="#FFFFFF" d="M132.576,267.062h-1.521c-0.507,0-0.846-0.281-1.015-0.846l-16.486-39.567H51.159l-16.486,39.567
		c-0.169,0.564-0.564,0.846-1.184,0.846h-1.353l49.375-118.365h1.691L132.576,267.062z M51.835,224.958h61.042l-29.168-70.004
		c-0.283-0.62-0.522-1.197-0.719-1.733c-0.198-0.535-0.41-1.112-0.634-1.733c-0.226,0.621-0.437,1.198-0.634,1.733
		c-0.198,0.537-0.438,1.114-0.719,1.733L51.835,224.958z"/>
	<path fill="#FFFFFF" d="M156.418,149.374l83.785,114.053c-0.057-0.281-0.084-0.577-0.084-0.888c0-0.309,0-0.604,0-0.888V148.698
		h1.691v118.365h-0.507c-0.338,0-0.648-0.197-0.93-0.592l-84.208-114.56c0.056,0.338,0.084,0.69,0.084,1.057
		c0,0.367,0,0.691,0,0.972v113.123h-1.691V148.698h0.676C155.742,148.698,156.135,148.923,156.418,149.374z"/>
	<path fill="#FFFFFF" d="M356.792,148.698v1.86h-44.471v116.505h-2.029V150.558h-44.81v-1.86H356.792z"/>
	<path fill="#FFFFFF" d="M385.874,267.062h-2.029V148.698h2.029V267.062z"/>
	<path fill="#FFFFFF" d="M498.994,148.698v1.86h-67.129v55.463h56.983v1.859h-56.983v57.322h67.299l-0.17,1.86h-69.158V148.698
		H498.994z"/>
	<path fill="#FFFFFF" d="M536.701,205.851h7.947c1.07,0,1.973-0.027,2.705-0.084c0.732-0.056,1.396-0.183,1.987-0.381
		c0.592-0.196,1.169-0.492,1.733-0.888c0.562-0.394,1.184-0.9,1.859-1.521l55.124-52.926c0.62-0.507,1.127-0.858,1.522-1.057
		c0.394-0.197,0.9-0.296,1.521-0.296h1.015l-57.491,55.125c-0.902,0.845-1.706,1.479-2.41,1.902
		c-0.705,0.422-1.593,0.747-2.663,0.972c1.015,0.169,1.902,0.479,2.663,0.93c0.762,0.452,1.508,1.044,2.241,1.776l61.042,57.66
		h-0.846c-0.846,0-1.452-0.085-1.817-0.254c-0.367-0.169-0.775-0.478-1.227-0.93l-58.167-54.955
		c-0.846-0.789-1.579-1.408-2.198-1.86c-0.621-0.45-1.24-0.788-1.86-1.015c-0.621-0.225-1.297-0.365-2.029-0.423
		c-0.732-0.055-1.635-0.084-2.705-0.084h-7.947v59.521h-2.029V148.529h2.029V205.851z"/>
</g>
<g>
	<g>
		<g>
			<path fill="#FFFFFF" d="M437,311h-0.277c-1.748,0-3.068,0.307-3.957,1.307c-0.891,1.001-1.59,2.438-2.097,4.505
				c-0.891,0-1.764-0.088-2.623-0.167c-0.857-0.079-1.62-0.304-2.288-0.62c0.158-0.635,0.31-1.355,0.454-2.135
				c0.142-0.777,0.27-1.579,0.382-2.389c0.109-0.81,0.198-1.616,0.261-2.41c0.063-0.794,0.095-1.526,0.095-2.194
				c0.984,0.033,1.962,0.055,2.933,0.071c0.968,0.016,2.018,0.011,3.144,0.027c1.129,0.016,2.393,0.004,3.791,0.004h9.675
				c1.366,0,2.621,0.012,3.766-0.004c1.143-0.016,2.223-0.021,3.242-0.037c1.015-0.016,2.016-0.035,3.002-0.067
				c0,1.334,0.102,2.823,0.31,4.459c0.207,1.636,0.484,3.171,0.833,4.6c-0.635,0.254-1.373,0.445-2.216,0.573
				c-0.843,0.128-1.757,0.191-2.742,0.191c-0.445-2.13-1.047-3.484-1.811-4.454c-0.761-0.968-1.953-1.261-3.575-1.261H446v19.347
				c0,1.113,0.239,2.002,0.367,2.67c0.126,0.668,0.444,1.192,0.777,1.573c0.335,0.382,0.847,0.652,1.452,0.81
				c0.603,0.158,1.418,0.254,2.405,0.286c0.158,0.445,0.288,1.017,0.367,1.715c0.079,0.701,0.124,1.366,0.124,2.002
				c-0.889-0.063-2.15-0.233-3.786-0.249s-3.47-0.154-5.502-0.154h-3.147c-1.08,0-2.113,0.138-3.098,0.154
				c-0.985,0.016-1.899,0.096-2.742,0.112c-0.843,0.016-1.517,0.072-2.025,0.105c0-0.573,0.056-1.206,0.168-1.936
				c0.109-0.731,0.244-1.312,0.405-1.756c0.985-0.033,1.801-0.124,2.453-0.282c0.652-0.158,1.168-0.426,1.55-0.808
				c0.382-0.382,0.742-0.904,0.901-1.572c0.158-0.668,0.33-1.556,0.33-2.669V311z"/>
			<path fill="#FFFFFF" d="M470.376,307.038c0.633-0.158,1.215-0.244,1.739-0.261s1.152-0.026,1.883-0.026l10.583,23.214
				c0.57,1.241,1.047,2.225,1.429,2.956c0.382,0.731,0.722,1.294,1.024,1.692c0.303,0.398,0.589,0.668,0.859,0.81
				c0.27,0.144,0.58,0.23,0.929,0.263c0.128,0.412,0.223,0.945,0.286,1.597c0.063,0.652,0.095,1.359,0.095,2.12
				c-0.477-0.033-1.064-0.056-1.764-0.072c-0.698-0.016-1.406-0.161-2.12-0.177c-0.715-0.016-1.406-0.154-2.074-0.154h-3.242
				c-0.731,0-1.518,0.138-2.358,0.154c-0.843,0.016-1.662,0.096-2.455,0.112c-0.794,0.016-1.415,0.072-1.86,0.105
				c0-0.889,0.033-1.597,0.095-2.153c0.063-0.554,0.158-1.062,0.286-1.54c1.05-0.254,1.676-0.648,1.883-1.188
				c0.207-0.54,0.072-1.348-0.405-2.43l-0.333-0.714c-1.843,0.033-3.719,0.08-5.625,0.145c-1.715,0.063-3.463,0.175-5.244,0.333
				l-0.047,0.191c-0.161,0.349-0.247,0.724-0.263,1.12c-0.016,0.398,0.049,0.77,0.191,1.12c0.142,0.351,0.365,0.652,0.668,0.905
				c0.3,0.256,0.705,0.431,1.215,0.526c0.126,0.507,0.221,1.064,0.286,1.669c0.063,0.603,0.095,1.287,0.095,2.048
				c-0.286-0.033-0.661-0.056-1.12-0.072c-0.463-0.016-0.954-0.161-1.478-0.177c-0.526-0.016-1.057-0.154-1.597-0.154h-1.383
				c-0.796,0-1.639,0.138-2.528,0.154c-0.889,0.016-1.573,0.121-2.048,0.184c0-0.731,0.03-1.35,0.095-1.92
				c0.063-0.573,0.189-1.145,0.379-1.748c0.382-0.063,0.724-0.176,1.026-0.35c0.3-0.175,0.596-0.431,0.882-0.783
				c0.284-0.349,0.58-0.815,0.88-1.404c0.303-0.587,0.645-1.342,1.026-2.264L470.376,307.038z M465.37,328h8.104l-1.764-3.927
				c-0.859-1.906-1.541-3.638-2.051-5.323c-0.126-0.382-0.254-0.748-0.382-1.16l-0.379,1.254c-0.51,1.652-1.145,3.316-1.909,5.222
				L465.37,328z"/>
			<path fill="#FFFFFF" d="M499,311h-0.501c-1.748,0-3.068,0.307-3.957,1.307c-0.891,1.001-1.59,2.438-2.097,4.505
				c-0.891,0-1.764-0.088-2.623-0.167c-0.857-0.079-1.62-0.304-2.288-0.62c0.158-0.635,0.31-1.355,0.454-2.135
				c0.142-0.777,0.27-1.579,0.382-2.389c0.109-0.81,0.198-1.616,0.261-2.41c0.063-0.794,0.095-1.526,0.095-2.194
				c0.984,0.033,1.962,0.055,2.933,0.071c0.968,0.016,2.018,0.011,3.144,0.027c1.129,0.016,2.393,0.004,3.791,0.004h9.675
				c1.366,0,2.621,0.012,3.766-0.004c1.143-0.016,2.223-0.021,3.242-0.037c1.015-0.016,2.016-0.035,3.002-0.067
				c0,1.334,0.102,2.823,0.31,4.459c0.207,1.636,0.484,3.171,0.833,4.6c-0.635,0.254-1.373,0.445-2.216,0.573
				c-0.843,0.128-1.757,0.191-2.742,0.191c-0.445-2.13-1.047-3.484-1.811-4.454c-0.761-0.968-1.953-1.261-3.575-1.261H508v19.347
				c0,1.113,0.127,2.002,0.255,2.67c0.126,0.668,0.388,1.192,0.721,1.573c0.335,0.382,0.819,0.652,1.424,0.81
				c0.603,0.158,1.404,0.254,2.391,0.286c0.158,0.445,0.281,1.017,0.36,1.715c0.079,0.701,0.121,1.366,0.121,2.002
				c-0.889-0.063-2.152-0.233-3.788-0.249S506.012,339,503.98,339h-3.147c-1.08,0-2.113,0.138-3.098,0.154
				c-0.985,0.016-1.899,0.096-2.742,0.112c-0.843,0.016-1.517,0.072-2.025,0.105c0-0.573,0.056-1.206,0.168-1.936
				c0.109-0.731,0.244-1.312,0.405-1.756c0.985-0.033,1.801-0.124,2.453-0.282c0.652-0.158,1.168-0.426,1.55-0.808
				c0.382-0.382,0.855-0.904,1.013-1.572c0.158-0.668,0.443-1.556,0.443-2.669V311z"/>
			<path fill="#FFFFFF" d="M533,311h-0.229c-1.748,0-3.068,0.307-3.957,1.307c-0.891,1.001-1.59,2.438-2.097,4.505
				c-0.891,0-1.764-0.088-2.623-0.167c-0.857-0.079-1.62-0.304-2.288-0.62c0.158-0.635,0.31-1.355,0.454-2.135
				c0.142-0.777,0.27-1.579,0.382-2.389c0.109-0.81,0.198-1.616,0.261-2.41c0.063-0.794,0.095-1.526,0.095-2.194
				c0.985,0.033,1.962,0.055,2.933,0.071c0.968,0.016,2.018,0.011,3.144,0.027c1.129,0.016,2.393,0.004,3.791,0.004h9.675
				c1.366,0,2.621,0.012,3.766-0.004c1.143-0.016,2.223-0.021,3.242-0.037c1.015-0.016,2.016-0.035,3.002-0.067
				c0,1.334,0.102,2.823,0.31,4.459c0.207,1.636,0.484,3.171,0.833,4.6c-0.635,0.254-1.373,0.445-2.216,0.573
				c-0.843,0.128-1.757,0.191-2.742,0.191c-0.445-2.13-1.047-3.484-1.811-4.454c-0.761-0.968-1.953-1.261-3.575-1.261H542v19.347
				c0,1.113,0.262,2.002,0.391,2.67c0.126,0.668,0.456,1.192,0.789,1.573c0.335,0.382,0.853,0.652,1.458,0.81
				c0.603,0.158,1.421,0.254,2.408,0.286c0.158,0.445,0.289,1.017,0.369,1.715c0.079,0.701,0.125,1.366,0.125,2.002
				c-0.889-0.063-2.15-0.233-3.786-0.249c-1.636-0.016-3.469-0.154-5.501-0.154h-3.147c-1.08,0-2.113,0.138-3.098,0.154
				c-0.984,0.016-1.899,0.096-2.742,0.112c-0.843,0.016-1.518,0.072-2.025,0.105c0-0.573,0.056-1.206,0.168-1.936
				c0.109-0.731,0.244-1.312,0.405-1.756c0.984-0.033,1.801-0.124,2.453-0.282c0.652-0.158,1.168-0.426,1.55-0.808
				c0.382-0.382,0.719-0.904,0.877-1.572c0.158-0.668,0.307-1.556,0.307-2.669V311z"/>
			<path fill="#FFFFFF" d="M556.555,323.006c0-2.542,0.405-4.822,1.215-6.84c0.81-2.018,1.939-3.733,3.384-5.148
				c1.445-1.413,3.177-2.502,5.197-3.265c2.018-0.761,4.234-1.143,6.65-1.143c2.479,0,4.734,0.375,6.768,1.12
				c2.032,0.747,3.773,1.804,5.218,3.17c1.445,1.366,2.558,3.028,3.338,4.981c0.777,1.955,1.168,4.124,1.168,6.508
				c0,2.574-0.391,4.918-1.168,7.031c-0.78,2.113-1.883,3.931-3.312,5.458c-1.431,1.525-3.163,2.709-5.197,3.549
				c-2.034,0.843-4.306,1.264-6.815,1.264c-2.574,0-4.878-0.405-6.913-1.215c-2.034-0.81-3.759-1.946-5.172-3.407
				c-1.415-1.462-2.495-3.219-3.242-5.269C556.927,327.75,556.555,325.485,556.555,323.006z M566.326,321.864
				c0,1.906,0.144,3.717,0.431,5.432c0.286,1.718,0.721,3.219,1.31,4.506c0.586,1.287,1.334,2.304,2.241,3.049
				c0.905,0.747,1.992,1.122,3.263,1.122c0.984,0,1.86-0.293,2.623-0.882c0.761-0.589,1.406-1.431,1.929-2.528
				c0.526-1.096,0.922-2.423,1.192-3.98c0.27-1.557,0.405-3.289,0.405-5.195c0-1.811-0.165-3.519-0.5-5.125
				c-0.333-1.604-0.817-3.002-1.452-4.194c-0.638-1.192-1.408-2.137-2.313-2.835c-0.905-0.701-1.93-1.05-3.075-1.05
				c-1.939,0-3.431,1.01-4.48,3.026C566.852,315.23,566.326,318.114,566.326,321.864z"/>
			<path fill="#FFFFFF" d="M592.828,323.006c0-2.542,0.405-4.822,1.215-6.84c0.81-2.018,1.939-3.733,3.384-5.148
				c1.445-1.413,3.177-2.502,5.197-3.265c2.018-0.761,4.234-1.143,6.65-1.143c2.479,0,4.734,0.375,6.768,1.12
				c2.032,0.747,3.773,1.804,5.218,3.17c1.445,1.366,2.558,3.028,3.338,4.981c0.777,1.955,1.168,4.124,1.168,6.508
				c0,2.574-0.391,4.918-1.168,7.031c-0.78,2.113-1.883,3.931-3.312,5.458c-1.431,1.525-3.163,2.709-5.197,3.549
				c-2.034,0.843-4.306,1.264-6.815,1.264c-2.574,0-4.878-0.405-6.913-1.215c-2.034-0.81-3.759-1.946-5.172-3.407
				c-1.415-1.462-2.495-3.219-3.242-5.269C593.201,327.75,592.828,325.485,592.828,323.006z M602.599,321.864
				c0,1.906,0.144,3.717,0.431,5.432c0.286,1.718,0.721,3.219,1.31,4.506c0.586,1.287,1.334,2.304,2.241,3.049
				c0.905,0.747,1.992,1.122,3.263,1.122c0.984,0,1.86-0.293,2.623-0.882c0.761-0.589,1.406-1.431,1.93-2.528
				c0.526-1.096,0.922-2.423,1.192-3.98c0.27-1.557,0.405-3.289,0.405-5.195c0-1.811-0.165-3.519-0.5-5.125
				c-0.333-1.604-0.817-3.002-1.452-4.194c-0.638-1.192-1.408-2.137-2.313-2.835c-0.905-0.701-1.929-1.05-3.075-1.05
				c-1.939,0-3.431,1.01-4.48,3.026C603.125,315.23,602.599,318.114,602.599,321.864z"/>
		</g>
	</g>
	<g>
		<path fill="#FFFFFF" d="M242.461,81.224c-0.431,0.738-0.742,1.342-0.933,1.812s-0.256,0.852-0.191,1.144
			c0.063,0.292,0.233,0.509,0.514,0.648c0.279,0.14,0.673,0.248,1.182,0.324c0.1,0.534,0.14,1.081,0.114,1.64
			c-0.61-0.051-1.201-0.083-1.774-0.095s-1.15-0.019-1.734-0.019c-0.663,0-1.227,0.006-1.697,0.019
			c-0.47,0.013-0.987,0.044-1.545,0.095c0-0.279,0.019-0.559,0.056-0.839c0.04-0.279,0.121-0.546,0.249-0.801
			c0.356-0.101,0.673-0.241,0.954-0.419c0.279-0.178,0.559-0.426,0.84-0.744c0.279-0.318,0.582-0.725,0.912-1.221
			c0.33-0.496,0.712-1.111,1.145-1.849c1.957-3.331,3.878-6.654,5.758-9.972c1.881-3.318,3.761-6.667,5.644-10.048
			c0.228-0.101,0.482-0.165,0.761-0.191c0.279-0.026,0.521-0.038,0.726-0.038c0.991,3.483,1.946,6.966,2.858,10.449
			c0.917,3.483,1.792,6.991,2.632,10.525c0.179,0.711,0.342,1.277,0.496,1.697c0.154,0.419,0.312,0.749,0.477,0.991
			c0.165,0.242,0.349,0.419,0.552,0.534c0.205,0.114,0.447,0.209,0.726,0.285c0.074,0.28,0.121,0.553,0.133,0.82
			c0.012,0.266,0.007,0.54-0.019,0.819c-0.635-0.051-1.352-0.083-2.155-0.095c-0.801-0.013-1.492-0.019-2.078-0.019
			c-0.661,0-1.359,0.006-2.097,0.019s-1.487,0.044-2.251,0.095c0-0.279,0.019-0.559,0.058-0.839c0.04-0.279,0.121-0.546,0.249-0.801
			c0.559-0.076,1.01-0.171,1.352-0.285c0.342-0.115,0.591-0.286,0.742-0.516c0.154-0.228,0.23-0.527,0.23-0.896
			c0-0.368-0.077-0.845-0.23-1.43l-0.875-3.698c-1.601,0-3.319,0.013-5.148,0.038c-1.829,0.026-3.51,0.063-5.032,0.114
			L242.461,81.224z M253.787,77c-0.279-2-0.57-2.545-0.877-3.703c-0.303-1.157-0.624-2.414-0.952-3.558
			c-0.202-0.738-0.375-1.445-0.514-2.018c-0.14-0.571-0.275-1.279-0.4-2.067c-0.382,0.788-0.74,1.481-1.068,2.103
			c-0.33,0.623-0.712,1.334-1.143,2.147c-0.587,1.12-1.182,2.442-1.792,3.547C246.427,74.56,245.806,75,245.168,77H253.787z"/>
		<path fill="#FFFFFF" d="M267.135,75.743c0.151-0.89,0.251-1.663,0.303-2.159c0.051-0.496,0.007-0.905-0.133-1.147
			c-0.14-0.241-0.382-0.407-0.724-0.458c-0.344-0.051-0.819-0.087-1.429-0.087c0-0.101,0.005-0.323,0.019-0.653
			c0.012-0.33,0.081-0.6,0.209-0.803c0.303-0.026,0.691-0.097,1.164-0.211c0.47-0.115,0.952-0.249,1.448-0.401
			c0.496-0.154,0.966-0.312,1.41-0.477c0.445-0.165,0.808-0.325,1.087-0.477c0.763,0.255,1.031,1.081,0.801,2.479
			c-0.202,1.094-0.412,1.958-0.628,2.67C270.444,74.73,270.198,75,269.918,76h0.037l0.573-1.22c0.279-0.635,0.703-1.283,1.275-1.983
			c0.573-0.699,1.208-1.331,1.909-1.916c0.698-0.584,1.434-1.062,2.211-1.444c0.775-0.382,1.506-0.57,2.192-0.57
			c0.331,0,0.673,0.072,1.029,0.212s0.675,0.381,0.954,0.724s0.482,0.795,0.61,1.354c0.126,0.56,0.114,1.259-0.037,2.098
			c-0.102,0.509-0.219,0.948-0.344,1.391c-0.126,0.446-0.293,1.354-0.496,1.354h0.04l0.573-1.22c0.279-0.61,0.703-1.233,1.275-1.907
			c0.573-0.673,1.215-1.287,1.927-1.858c0.712-0.573,1.455-1.038,2.23-1.407c0.775-0.368,1.494-0.55,2.155-0.55
			c0.684,0,1.234,0.179,1.639,0.535c0.407,0.356,0.694,0.852,0.859,1.488c0.165,0.635,0.216,1.405,0.151,2.307
			c-0.063,0.903-0.233,1.902-0.512,2.994l-1.145,4.461c-0.205,0.789-0.358,1.419-0.458,1.889c-0.1,0.47-0.151,0.826-0.151,1.067
			c0,0.242,0.056,0.4,0.172,0.477c0.112,0.076,0.27,0.114,0.475,0.114c0.279,0,0.587-0.083,0.917-0.248
			c0.328-0.165,0.722-0.463,1.18-0.896c0.356,0.33,0.573,0.738,0.649,1.22c-0.587,0.687-1.266,1.285-2.041,1.793
			c-0.775,0.507-1.531,0.762-2.269,0.762c-0.712,0-1.257-0.102-1.639-0.305c-0.382-0.204-0.628-0.54-0.745-1.011
			c-0.114-0.47-0.126-1.099-0.037-1.888c0.088-0.787,0.261-1.767,0.514-2.936l0.991-4.347c0.23-0.966,0.37-1.761,0.421-2.383
			c0.049-0.623,0.037-1.113-0.04-1.469c-0.077-0.356-0.209-0.604-0.4-0.744s-0.426-0.209-0.705-0.209
			c-0.382,0-0.877,0.209-1.487,0.63c-0.61,0.419-1.241,1.049-1.888,1.888c-0.647,0.839-1.259,1.882-1.829,3.127
			c-0.573,1.245-1.024,2.855-1.355,4.508L278.344,87h-3.431l1.755-8.741c0.303-1.423,0.489-2.648,0.552-3.512
			c0.063-0.863,0.049-1.566-0.04-2.023s-0.247-0.782-0.475-0.935s-0.484-0.239-0.763-0.239c-0.382,0-0.877,0.224-1.487,0.682
			c-0.61,0.457-1.234,1.123-1.869,1.999c-0.635,0.877-1.238,1.943-1.811,3.202c-0.573,1.258-1.01,2.849-1.315,4.45L268.506,87h-3.47
			L267.135,75.743z"/>
		<path fill="#FFFFFF" d="M299.47,85.381c0.533,0,1.024-0.134,1.469-0.4c0.445-0.268,0.717-0.668,0.819-1.201
			c0.102-0.56,0.014-1.087-0.265-1.583c-0.282-0.496-0.661-0.986-1.145-1.469c-0.484-0.483-1.01-0.985-1.583-1.506
			c-0.573-0.521-1.087-1.093-1.545-1.716c-0.456-0.623-0.812-1.309-1.066-2.059c-0.256-0.749-0.293-1.608-0.116-2.574
			c0.23-1.296,0.829-2.288,1.792-2.974c0.968-0.687,2.253-1.03,3.854-1.03c0.812,0,1.671,0.134,2.574,0.4
			c0.901,0.268,1.632,0.668,2.192,1.202c-0.282,0.584-0.479,1.175-0.591,1.772c-0.116,0.598-0.198,1.253-0.249,1.964
			c-0.433,0.254-0.966,0.356-1.601,0.305c-0.051-1.221-0.356-2.187-0.915-2.898c-0.559-0.712-1.35-1.068-2.365-1.068
			c-0.61,0-1.094,0.147-1.448,0.439c-0.358,0.292-0.573,0.655-0.649,1.087c-0.128,0.585-0.04,1.125,0.268,1.62
			c0.303,0.496,0.71,0.98,1.22,1.45c0.507,0.47,1.061,0.96,1.657,1.467c0.598,0.509,1.131,1.068,1.601,1.678
			c0.47,0.61,0.833,1.291,1.089,2.04c0.251,0.751,0.291,1.608,0.112,2.574c-0.251,1.322-0.875,2.339-1.867,3.05
			c-0.991,0.712-2.327,1.068-4.003,1.068c-1.068,0-2.067-0.198-2.993-0.591c-0.931-0.393-1.673-0.922-2.232-1.583
			c0.279-0.584,0.477-1.201,0.591-1.849s0.198-1.328,0.249-2.04c0.431-0.254,0.964-0.356,1.601-0.305
			c-0.028,0.635,0.051,1.239,0.228,1.811c0.177,0.573,0.424,1.074,0.745,1.506c0.317,0.433,0.691,0.776,1.122,1.03
			C298.453,85.254,298.937,85.381,299.47,85.381z"/>
		<path fill="#FFFFFF" d="M313.237,78.936c-0.228,1.043-0.377,1.926-0.438,2.65c-0.065,0.725-0.051,1.316,0.037,1.774
			c0.088,0.457,0.247,0.789,0.475,0.992c0.23,0.204,0.498,0.305,0.801,0.305c0.433,0,0.91-0.158,1.431-0.476
			c0.521-0.318,0.984-0.731,1.392-1.239c0.202,0.127,0.375,0.305,0.514,0.533c0.14,0.229,0.235,0.459,0.286,0.687
			c-0.254,0.33-0.566,0.668-0.933,1.011s-0.777,0.648-1.22,0.915c-0.447,0.266-0.917,0.49-1.413,0.668
			c-0.496,0.177-0.998,0.266-1.506,0.266c-1.601,0-2.649-0.616-3.147-1.849c-0.493-1.234-0.424-3.222,0.209-5.969l1.792-7.894
			c-0.433-0.05-0.894-0.101-1.392-0.152c-0.493-0.05-0.973,0.127-1.429,0.127c0-0.584,0.14-1.284,0.419-1.284h2.823l0.077-0.585
			c0.279-1.168,0.5-2.307,0.666-3.209c0.165-0.903,0.275-1.672,0.326-2.206c0.507-0.076,1.047-0.222,1.62-0.387
			c0.573-0.165,1.036-0.362,1.392-0.565c0.154,0.076,0.272,0.185,0.363,0.337c0.088,0.152,0.133,0.384,0.133,0.702
			c0,0.318-0.051,0.768-0.151,1.352c-0.102,0.585-0.27,1.55-0.498,2.49L315.448,70h3.547c0,0-0.019,0.344-0.058,0.598
			c-0.037,0.255-0.109,0.381-0.209,0.585c-0.687,0-1.348-0.025-1.983,0.025c-0.635,0.051-1.208,0.09-1.715,0.165L313.237,78.936z"/>
		<path fill="#FFFFFF" d="M328.947,68.869c0.763,0,1.396,0.121,1.906,0.363s0.896,0.559,1.161,0.953
			c0.27,0.395,0.433,0.845,0.498,1.353c0.061,0.509,0.042,1.03-0.058,1.564c-0.151,0.788-0.547,1.513-1.182,2.173
			c-0.635,0.662-1.371,1.234-2.211,1.716c-0.84,0.483-1.729,0.865-2.67,1.144c-0.94,0.28-1.806,0.433-2.593,0.457
			c-0.077,0.662-0.107,1.322-0.095,1.983c0.012,0.661,0.095,1.258,0.249,1.792c0.151,0.534,0.391,0.967,0.722,1.296
			c0.331,0.33,0.789,0.496,1.373,0.496c0.559,0,1.196-0.171,1.909-0.514c0.712-0.343,1.345-0.845,1.906-1.506
			c0.379,0.279,0.649,0.648,0.801,1.106c-0.356,0.457-0.782,0.915-1.278,1.373c-0.496,0.457-1.029,0.863-1.601,1.22
			c-0.573,0.356-1.164,0.642-1.774,0.858c-0.61,0.216-1.22,0.325-1.829,0.325c-1.068,0-1.902-0.261-2.5-0.782
			c-0.596-0.52-1.024-1.201-1.275-2.04c-0.256-0.839-0.363-1.779-0.326-2.822c0.04-1.042,0.158-2.084,0.363-3.127
			c0.279-1.473,0.726-2.796,1.336-3.966c0.61-1.168,1.301-2.154,2.076-2.955c0.777-0.801,1.608-1.412,2.5-1.831
			C327.244,69.08,328.107,68.869,328.947,68.869z M323.953,77.183c0.633-0.026,1.257-0.121,1.867-0.286
			c0.61-0.165,1.164-0.4,1.659-0.705c0.496-0.305,0.91-0.674,1.241-1.106c0.328-0.433,0.545-0.929,0.647-1.487
			c0.051-0.306,0.063-0.611,0.037-0.916c-0.023-0.305-0.107-0.591-0.247-0.858c-0.14-0.268-0.331-0.483-0.573-0.648
			c-0.242-0.165-0.54-0.248-0.896-0.248c-0.738,0-1.443,0.483-2.116,1.449c-0.675,0.966-1.164,2.288-1.469,3.966L323.953,77.183z"/>
		<path fill="#FFFFFF" d="M336.23,75.743c0.177-0.89,0.291-1.663,0.342-2.159c0.051-0.496,0.014-0.905-0.114-1.147
			c-0.128-0.241-0.356-0.407-0.687-0.458c-0.33-0.051-0.801-0.087-1.41-0.087c0-0.279,0.014-0.545,0.037-0.787
			c0.026-0.241,0.102-0.466,0.228-0.669c0.307-0.026,0.694-0.097,1.164-0.211c0.47-0.115,0.954-0.249,1.45-0.401
			c0.496-0.154,0.973-0.312,1.431-0.477c0.456-0.165,0.824-0.325,1.103-0.477c0.763,0.255,1.017,0.896,0.763,2.268
			c-0.254,1.349-0.815,2.862-1.676,4.862h0.074l0.647-1.24c0.382-0.838,0.822-1.534,1.317-2.259
			c0.496-0.724,1.003-1.323,1.524-1.883c0.521-0.559,1.054-0.976,1.604-1.294c0.545-0.318,1.071-0.466,1.583-0.466
			c0.479,0,0.889,0.062,1.22,0.178c0.331,0.114,0.633,0.289,0.915,0.517c-0.282,0.585-0.51,1.292-0.687,2.118
			s-0.293,1.596-0.344,2.307c-0.433,0.255-0.966,0.356-1.601,0.305c-0.023-0.559-0.063-1.01-0.114-1.353
			c-0.051-0.343-0.114-0.604-0.191-0.782c-0.077-0.177-0.165-0.291-0.268-0.343c-0.102-0.05-0.228-0.076-0.382-0.076
			c-0.354,0-0.768,0.267-1.238,0.801s-0.973,1.284-1.506,2.249c-0.812,1.476-1.462,2.86-1.943,4.157
			c-0.484,1.296-0.891,2.906-1.222,4.509L337.601,87h-3.505L336.23,75.743z"/>
		<path fill="#FFFFFF" d="M361.285,79.928c-0.179,1.017-0.312,1.825-0.4,2.422c-0.091,0.597-0.135,1.049-0.135,1.353
			c0,0.305,0.051,0.496,0.154,0.573c0.1,0.076,0.242,0.114,0.419,0.114c0.279,0,0.573-0.083,0.877-0.248s0.71-0.463,1.22-0.896
			c0.179,0.178,0.319,0.362,0.421,0.553c0.1,0.191,0.189,0.4,0.265,0.63c-0.61,0.712-1.317,1.322-2.118,1.831
			c-0.801,0.507-1.531,0.762-2.192,0.762c-0.912,0-1.569-0.216-1.962-0.648c-0.393-0.432-0.624-0.966-0.687-1.601
			c-0.065-0.635-0.014-1.167,0.154-1.905c0.163-0.737,0.335-1.867,0.512-1.867h-0.037c-0.356,0-0.787,1.327-1.296,2.076
			c-0.51,0.751-1.068,1.353-1.678,1.963c-0.61,0.611-1.271,1.068-1.983,1.449c-0.712,0.382-1.436,0.553-2.174,0.553
			c-1.271,0-2.174-0.645-2.707-1.916c-0.533-1.272-0.521-3.323,0.04-6.145c0.303-1.474,0.773-2.83,1.41-4.064
			c0.633-1.232,1.403-2.295,2.307-3.185c0.901-0.889,1.906-1.589,3.014-2.098c1.103-0.509,2.281-0.764,3.526-0.764
			c0.482,0,1.017,0.064,1.601,0.191c0.026-0.406,0.07-0.839,0.133-1.296c0.065-0.457,0.135-0.94,0.209-1.449
			c0.154-0.89,0.256-1.583,0.307-2.078c0.049-0.496,0.012-0.863-0.116-1.106c-0.126-0.242-0.363-0.388-0.705-0.439
			s-0.819-0.077-1.429-0.077c0-0.279,0.007-0.539,0.019-0.781c0.012-0.242,0.081-0.464,0.209-0.668
			c0.305-0.024,0.691-0.095,1.164-0.209c0.47-0.114,0.952-0.248,1.45-0.4c0.493-0.152,0.971-0.311,1.429-0.477
			c0.456-0.165,0.824-0.324,1.106-0.476c0.761,0.254,1.031,1.067,0.801,2.44L361.285,79.928z M359.605,71.195
			c-0.661-0.254-1.434-0.381-2.325-0.381c-0.789,0-1.487,0.158-2.097,0.476c-0.61,0.319-1.145,0.756-1.601,1.316
			c-0.456,0.559-0.847,1.232-1.164,2.02c-0.317,0.789-0.566,1.654-0.742,2.594c-0.458,2.161-0.58,3.819-0.363,4.976
			s0.705,1.735,1.469,1.735c0.331,0,0.768-0.229,1.315-0.687c0.547-0.457,1.12-1.118,1.715-1.983
			c0.598-0.863,1.182-1.919,1.755-3.165c0.573-1.245,1.036-2.656,1.392-4.232L359.605,71.195z"/>
		<path fill="#FFFFFF" d="M379.397,81.072c-0.154,0.738-0.268,1.322-0.344,1.754c-0.074,0.433-0.102,0.763-0.074,0.992
			c0.023,0.229,0.093,0.382,0.209,0.459c0.114,0.076,0.272,0.114,0.475,0.114c0.279,0,0.573-0.083,0.88-0.248
			c0.303-0.165,0.71-0.463,1.22-0.896c0.177,0.178,0.317,0.362,0.419,0.553s0.191,0.4,0.265,0.63
			c-0.61,0.712-1.303,1.322-2.076,1.831c-0.777,0.507-1.494,0.762-2.155,0.762c-0.866,0-1.494-0.209-1.888-0.63
			c-0.393-0.419-0.631-0.934-0.705-1.544c-0.077-0.61-0.037-1.294,0.114-1.981S376.078,82,376.306,81h-0.037
			c-0.356,1-0.787,1.453-1.296,2.153s-1.061,1.353-1.659,1.924c-0.596,0.573-1.234,1.045-1.904,1.401
			c-0.675,0.356-1.369,0.539-2.081,0.539c-1.271,0-2.174-0.633-2.707-1.904c-0.533-1.272-0.521-3.317,0.04-6.139
			c0.303-1.474,0.773-2.827,1.41-4.061c0.633-1.232,1.403-2.293,2.307-3.184c0.901-0.889,1.906-1.588,3.014-2.097
			c1.103-0.509,2.281-0.763,3.526-0.763c0.356,0,0.729,0.033,1.124,0.095c0.396,0.064,0.731,0.147,1.01,0.248
			c0.382,0,0.777-0.024,1.182-0.076c0.407-0.051,0.738-0.14,0.992-0.268c0.102,0.051,0.195,0.128,0.286,0.229
			c0.088,0.102,0.147,0.28,0.172,0.534s0.012,0.61-0.04,1.067s-0.163,1.068-0.342,1.831L379.397,81.072z M378.289,71.195
			c-0.661-0.254-1.434-0.381-2.325-0.381c-0.789,0-1.487,0.158-2.097,0.476c-0.61,0.319-1.145,0.756-1.601,1.316
			c-0.456,0.559-0.847,1.232-1.164,2.02c-0.317,0.789-0.566,1.654-0.742,2.594c-0.459,2.161-0.58,3.819-0.363,4.976
			s0.705,1.735,1.469,1.735c0.331,0,0.768-0.229,1.315-0.687c0.547-0.457,1.113-1.118,1.697-1.983
			c0.587-0.863,1.164-1.919,1.736-3.165c0.573-1.245,1.047-2.656,1.429-4.232L378.289,71.195z"/>
		<path fill="#FFFFFF" d="M387.441,75.743c0.154-0.89,0.256-1.663,0.307-2.159c0.049-0.496,0.005-0.905-0.135-1.147
			c-0.14-0.241-0.382-0.407-0.724-0.458c-0.342-0.051-0.822-0.087-1.431-0.087c0-0.101,0.007-0.323,0.019-0.653
			c0.014-0.33,0.084-0.6,0.209-0.803c0.307-0.026,0.694-0.097,1.164-0.211c0.47-0.115,0.954-0.249,1.45-0.401
			c0.496-0.154,0.966-0.312,1.41-0.477c0.445-0.165,0.808-0.325,1.087-0.477c0.763,0.255,1.029,1.081,0.801,2.479
			c-0.205,1.094-0.414,1.958-0.628,2.67C390.753,74.73,390.504,75,390.225,76h0.037l0.573-1.22c0.279-0.635,0.708-1.283,1.28-1.983
			c0.57-0.699,1.206-1.331,1.904-1.916c0.701-0.584,1.438-1.062,2.213-1.444c0.775-0.382,1.506-0.57,2.192-0.57
			c0.328,0,0.673,0.072,1.031,0.212c0.354,0.14,0.67,0.381,0.952,0.724c0.279,0.343,0.482,0.795,0.61,1.354
			c0.128,0.56,0.114,1.259-0.04,2.098c-0.1,0.509-0.214,0.948-0.342,1.391C400.507,75.092,400.344,76,400.14,76h0.037l0.573-1.22
			c0.279-0.61,0.708-1.233,1.278-1.907c0.573-0.673,1.213-1.287,1.925-1.858c0.712-0.573,1.457-1.038,2.232-1.407
			c0.775-0.368,1.492-0.55,2.155-0.55c0.687,0,1.231,0.179,1.641,0.535c0.405,0.356,0.689,0.852,0.857,1.488
			c0.165,0.635,0.214,1.405,0.154,2.307c-0.065,0.903-0.237,1.902-0.517,2.994l-1.145,4.461c-0.202,0.789-0.354,1.419-0.456,1.889
			c-0.102,0.47-0.154,0.826-0.154,1.067c0,0.242,0.058,0.4,0.172,0.477c0.116,0.076,0.275,0.114,0.477,0.114
			c0.279,0,0.584-0.083,0.915-0.248c0.33-0.165,0.726-0.463,1.182-0.896c0.356,0.33,0.573,0.738,0.649,1.22
			c-0.584,0.687-1.264,1.285-2.041,1.793c-0.775,0.507-1.531,0.762-2.267,0.762c-0.712,0-1.261-0.102-1.641-0.305
			c-0.382-0.204-0.631-0.54-0.742-1.011c-0.116-0.47-0.13-1.099-0.04-1.888c0.088-0.787,0.261-1.767,0.514-2.936l0.992-4.347
			c0.228-0.966,0.368-1.761,0.419-2.383c0.051-0.623,0.04-1.113-0.037-1.469s-0.209-0.604-0.4-0.744
			c-0.191-0.14-0.426-0.209-0.705-0.209c-0.382,0-0.877,0.209-1.487,0.63c-0.61,0.419-1.238,1.049-1.888,1.888
			c-0.649,0.839-1.259,1.882-1.832,3.127c-0.573,1.245-1.024,2.855-1.352,4.508L398.652,87h-3.433l1.755-8.741
			c0.307-1.423,0.489-2.648,0.554-3.512c0.063-0.863,0.051-1.566-0.037-2.023c-0.091-0.457-0.249-0.782-0.479-0.935
			c-0.228-0.152-0.482-0.239-0.761-0.239c-0.382,0-0.877,0.224-1.487,0.682c-0.61,0.457-1.234,1.123-1.869,1.999
			c-0.635,0.877-1.238,1.943-1.811,3.202c-0.573,1.258-1.01,2.849-1.315,4.45L388.814,87h-3.47L387.441,75.743z"/>
	</g>
	<g>
		<line fill="#FFFFFF" x1="8" y1="117" x2="642" y2="117"/>
		<rect x="8" y="115" fill="#FFFFFF" width="634" height="3"/>
	</g>
	<g>
		<line fill="#FFFFFF" x1="8" y1="285" x2="642" y2="285"/>
		<rect x="8" y="284" fill="#FFFFFF" width="634" height="2"/>
	</g>
</g>
</svg>